#N canvas 88 384 450 300 12;
#X obj 146 61 loadbang;
#X obj 165 195 line~;
#X obj 165 220 *~;
#X obj 165 245 dac~;
#X obj 122 115 t b b;
#X msg 175 152 1 20;
#X msg 97 169 0 300;
#X obj 122 140 delay 20;
#X obj 294 62 r myfreq;
#X obj 124 89 metro 400;
#X obj 283 122 osc~ 700;
#X connect 0 0 9 0;
#X connect 1 0 2 0;
#X connect 2 0 3 0;
#X connect 2 0 3 1;
#X connect 4 0 7 0;
#X connect 4 1 5 0;
#X connect 5 0 1 0;
#X connect 6 0 1 0;
#X connect 7 0 6 0;
#X connect 8 0 10 0;
#X connect 9 0 4 0;
#X connect 10 0 2 1;
