#N canvas 88 384 663 467 12;
#X obj 146 61 loadbang;
#X obj 165 195 line~;
#X obj 165 220 *~;
#X obj 165 245 dac~;
#X obj 122 115 t b b;
#X msg 175 152 1 20;
#X msg 97 169 0 300;
#X obj 122 140 delay 20;
#X obj 294 62 r myfreq;
#X obj 124 89 metro 400;
#X obj 283 122 osc~ 700;
#N canvas 2 87 450 300 ligneretard 0;
#X obj 165 121 delwrite~ ligneretard 1000;
#X obj 157 211 delread~ ligneretard 1000;
#X obj 166 62 inlet~;
#X obj 157 236 outlet~;
#X obj 305 63 inlet;
#X obj 305 88 switch~;
#X connect 1 0 3 0;
#X connect 2 0 0 0;
#X connect 4 0 5 0;
#X restore 329 282 pd ligneretard;
#X obj 322 181 adc~;
#X obj 343 328 dac~;
#X obj 457 151 r gain;
#X obj 329 257 *~;
#X obj 407 220 lop~ 10;
#X obj 484 217 > 0;
#X connect 0 0 9 0;
#X connect 1 0 2 0;
#X connect 2 0 3 0;
#X connect 2 0 3 1;
#X connect 4 0 7 0;
#X connect 4 1 5 0;
#X connect 5 0 1 0;
#X connect 6 0 1 0;
#X connect 7 0 6 0;
#X connect 8 0 10 0;
#X connect 9 0 4 0;
#X connect 10 0 2 1;
#X connect 11 0 13 0;
#X connect 11 0 13 1;
#X connect 12 0 15 0;
#X connect 12 1 15 0;
#X connect 14 0 16 0;
#X connect 14 0 17 0;
#X connect 15 0 11 0;
#X connect 16 0 15 1;
#X connect 17 0 11 1;
